<?xml version="1.0" encoding="UTF-8"?>
<svg version="1.1" xmlns="http://www.w3.org/2000/svg" width="1024" height="1024">
<path d="M0 0 C337.92 0 675.84 0 1024 0 C1024 337.92 1024 675.84 1024 1024 C686.08 1024 348.16 1024 0 1024 C0 686.08 0 348.16 0 0 Z " fill="#07182C" transform="translate(0,0)"/>
<path d="M0 0 C10.9008901 8.64775337 18.71088122 22.77666543 20.796875 36.44921875 C21.72221746 49.88943873 20.48229761 63.08458397 12.65234375 74.51953125 C11.4564769 77.21705739 11.86971198 78.68522332 12.796875 81.44921875 C14.10983546 83.28063875 14.10983546 83.28063875 15.859375 84.82421875 C16.49488281 85.42363281 17.13039063 86.02304687 17.78515625 86.640625 C20.35651714 88.95235334 22.94397799 91.2417785 25.5625 93.5 C28.17538876 95.77942569 30.73617521 98.11134228 33.296875 100.44921875 C36.41594511 103.29446103 39.54442891 106.12121455 42.734375 108.88671875 C46.19757946 111.8991342 49.59755518 114.97656177 52.984375 118.07421875 C53.48380615 118.52982178 53.9832373 118.9854248 54.49780273 119.45483398 C55.93918619 120.77724154 57.36816523 122.11312879 58.796875 123.44921875 C60.19679688 124.74666016 60.19679688 124.74666016 61.625 126.0703125 C63.796875 128.44921875 63.796875 128.44921875 64.359375 131.88671875 C63.59848659 136.70567869 61.82647422 139.83953661 57.984375 142.88671875 C54.55366043 143.7689025 52.03832413 143.81054805 48.796875 142.44921875 C41.71629751 136.90906836 35.49859197 130.22332515 29.24609375 123.78515625 C27.47925942 121.98624833 25.71165963 120.18809196 23.94335938 118.390625 C21.19298913 115.59056267 18.44757621 112.78628794 15.71459961 109.96923828 C13.05118686 107.22749682 10.36937044 104.50496966 7.68359375 101.78515625 C6.86581955 100.93327728 6.04804535 100.08139832 5.20549011 99.20370483 C4.43731461 98.43184845 3.6691391 97.65999207 2.87768555 96.86474609 C2.20835495 96.17907562 1.53902435 95.49340515 0.84941101 94.78695679 C-1.15870278 93.18064275 -1.15870278 93.18064275 -3.79216003 93.65420532 C-6.63648202 94.59211782 -9.08127752 95.87644034 -11.703125 97.32421875 C-24.95811293 104.06514171 -39.84407227 105.67818879 -54.20703125 101.5390625 C-70.60953144 95.57257286 -82.39292074 84.91906913 -90.203125 69.44921875 C-96.71038119 54.76520624 -97.1927349 39.20585491 -91.7421875 24.17578125 C-86.15999274 10.08056034 -74.827841 -1.89059593 -60.92578125 -7.98828125 C-39.39679995 -16.51269229 -18.90426995 -13.30672903 0 0 Z " fill="#BBC2C7" transform="translate(547.203125,392.55078125)"/>
<path d="M0 0 C10.02016017 7.48286639 19.35345145 18.31495087 21.32128906 31.08496094 C21.56990244 33.05394427 21.78724696 35.0268198 22 37 C20.92516357 37.029729 20.92516357 37.029729 19.82861328 37.06005859 C16.5936937 37.15509519 13.35943906 37.26486019 10.125 37.375 C8.43310547 37.42140625 8.43310547 37.42140625 6.70703125 37.46875 C5.63066406 37.50742187 4.55429687 37.54609375 3.4453125 37.5859375 C2.45031738 37.6173584 1.45532227 37.6487793 0.43017578 37.68115234 C-2.17854517 37.77247083 -2.17854517 37.77247083 -4 40 C-4.25005386 43.04182893 -4.25005386 43.04182893 -4 46 C-2.25960191 47.74039809 0.16110365 47.21193023 2.53125 47.28125 C3.65144531 47.31863281 4.77164063 47.35601562 5.92578125 47.39453125 C7.10527344 47.42933594 8.28476562 47.46414063 9.5 47.5 C11.82304966 47.56854901 14.14598222 47.64123531 16.46875 47.71875 C17.50451172 47.74904297 18.54027344 47.77933594 19.60742188 47.81054688 C22 48 22 48 23 49 C23.08758003 50.99964982 23.10696576 53.0023611 23.09765625 55.00390625 C23.09282227 56.82631836 23.09282227 56.82631836 23.08789062 58.68554688 C23.07532227 60.60463867 23.07532227 60.60463867 23.0625 62.5625 C23.05798828 63.84576172 23.05347656 65.12902344 23.04882812 66.45117188 C23.03699545 69.63416022 23.02051068 72.81705762 23 76 C18.54291477 75.26887075 16.84235735 74.20443044 13.6875 70.9375 C0.18258265 58.318151 -17.02303029 54.13087029 -35.08203125 54.65234375 C-50.17843989 55.46404119 -64.21744525 62.52848048 -75 73 C-78.25762497 76.80947636 -81.15460841 80.87624407 -84 85 C-85.32 84.67 -86.64 84.34 -88 84 C-88.02465098 79.03377651 -88.04283649 74.06758834 -88.05493164 69.10131836 C-88.0599719 67.41055684 -88.06680405 65.71979971 -88.07543945 64.02905273 C-88.08751857 61.60399293 -88.09323123 59.17899056 -88.09765625 56.75390625 C-88.10281754 55.99348526 -88.10797882 55.23306427 -88.11329651 54.44960022 C-88.11349238 52.6326743 -88.06197277 50.81586873 -88 49 C-86.29507235 47.29507235 -84.0549177 47.79029526 -81.72265625 47.71875 C-80.65208984 47.68136719 -79.58152344 47.64398438 -78.47851562 47.60546875 C-76.78758789 47.55326172 -76.78758789 47.55326172 -75.0625 47.5 C-72.84491753 47.43129693 -70.62745457 47.35858211 -68.41015625 47.28125 C-67.42152588 47.25095703 -66.43289551 47.22066406 -65.41430664 47.18945312 C-62.98947413 47.15135019 -62.98947413 47.15135019 -61 46 C-61 43.69 -61 41.38 -61 39 C-63.57211322 37.71394339 -65.56906966 37.78956059 -68.4453125 37.68359375 C-69.52167969 37.64169922 -70.59804688 37.59980469 -71.70703125 37.55664062 C-72.83496094 37.51732422 -73.96289062 37.47800781 -75.125 37.4375 C-76.26066406 37.39431641 -77.39632813 37.35113281 -78.56640625 37.30664062 C-81.37747768 37.2003396 -84.18863945 37.09830595 -87 37 C-86.13460669 23.82326785 -79.78684095 12.76574197 -70 4 C-49.61910818 -12.06530885 -21.92441378 -13.58779636 0 0 Z " fill="#D5D9DC" transform="translate(539,313)"/>
<path d="M0 0 C10.44420634 6.79977785 17.5182064 15.73040044 21.4609375 27.55859375 C22.84775469 42.49935461 21.51599015 54.15849228 12.3359375 66.37109375 C4.33295773 75.56854811 -5.38666282 80.84092454 -17.48828125 81.90625 C-30.52958535 82.53515664 -41.27952129 79.50174237 -51.3203125 70.78125 C-60.68465941 61.40041656 -64.87052695 50.70164577 -65.1015625 37.55859375 C-65.00011628 25.23352037 -60.27473837 15.37829053 -51.66015625 6.65625 C-38.20298593 -5.80019141 -16.23660533 -9.21739595 0 0 Z " fill="#091A2F" transform="translate(531.5390625,399.44140625)"/>
<path d="M0 0 C1.69335938 1.06713867 1.69335938 1.06713867 3 3 C3.29599623 5.63335225 3.41718043 8.04178547 3.40625 10.67578125 C3.41708618 11.43739059 3.42792236 12.19899994 3.43908691 12.98368835 C3.47335417 15.42670995 3.48891085 17.86927004 3.5 20.3125 C3.61394091 44.81722596 8.49181295 65.1350899 25.875 83.375 C40.08568191 96.90584991 58.64671599 103.57152279 78.12646484 103.41943359 C90.59355919 103.01184034 101.1948557 99.44095028 112.01171875 93.390625 C115.05410453 91.97482195 116.70656365 91.46989209 120 92 C123.29425985 95.07464252 124.74342772 96.71713858 125.625 101.125 C124.77994294 105.0122625 123.21561667 105.72372787 120 108 C109.15172315 114.10727928 98.04825719 117.09786506 86 120 C86 130.56 86 141.12 86 152 C89.70283203 152.03867187 89.70283203 152.03867187 93.48046875 152.078125 C95.88007853 152.11657468 98.27947555 152.16172523 100.67895508 152.20751953 C102.34226263 152.23568649 104.00570296 152.25692233 105.66918945 152.27099609 C108.06530525 152.29248592 110.45983184 152.33916288 112.85546875 152.390625 C113.5952446 152.39185364 114.33502045 152.39308228 115.09721375 152.39434814 C119.98835723 152.53206046 122.60287299 153.45734518 126 157 C127.0625 159.9375 127.0625 159.9375 127 163 C125.22960551 165.74716387 123.93708156 167.53145922 121 169 C118.25009849 169.11407607 115.52494277 169.16784574 112.77416992 169.17700195 C111.49830772 169.18685875 111.49830772 169.18685875 110.19667053 169.19691467 C107.37460243 169.21666696 104.55258758 169.22831439 101.73046875 169.23828125 C100.76767817 169.24235678 99.80488758 169.2464323 98.81292152 169.25063133 C93.7173242 169.27150004 88.62175388 169.28579844 83.52612305 169.29516602 C78.26001096 169.30623376 72.99432104 169.34063562 67.72835827 169.38033772 C63.68173938 169.40646923 59.63522162 169.41485476 55.58852577 169.41844749 C53.64724183 169.42332222 51.70596266 169.43496132 49.76476097 169.45348549 C47.04750387 169.47780391 44.33134602 169.47692539 41.61401367 169.4699707 C40.41139389 169.48918579 40.41139389 169.48918579 39.18447876 169.50878906 C35.44994112 169.47395436 33.22956079 169.14257164 30.0280304 167.15422058 C27.41235012 164.37578477 26.92229928 162.80733513 27 159 C28.77039449 156.25283613 30.06291844 154.46854078 33 153 C35.48073173 152.91351475 37.93368278 152.88427514 40.4140625 152.90234375 C41.06076904 152.90335083 41.70747559 152.90435791 42.3737793 152.90539551 C44.79087089 152.91062976 47.20793721 152.92459102 49.625 152.9375 C55.02875 152.958125 60.4325 152.97875 66 153 C66 141.78 66 130.56 66 119 C60.555 118.505 60.555 118.505 55 118 C37.52338089 113.96831856 23.38873723 104.68620691 11 92 C10.31421875 91.32324219 9.6284375 90.64648438 8.921875 89.94921875 C-7.66933678 72.4985523 -12.37409105 48.76137994 -12.81835938 25.59155273 C-12.87569999 22.77815504 -12.96411081 19.96680039 -13.0546875 17.15429688 C-13.09819909 15.35941878 -13.13993312 13.5644965 -13.1796875 11.76953125 C-13.20763397 10.93210892 -13.23558044 10.09468658 -13.26437378 9.23188782 C-13.34336989 3.43343019 -13.34336989 3.43343019 -11.66897583 1.31987 C-7.8468621 -1.7027581 -4.51563415 -0.96763589 0 0 Z " fill="#B0B9BF" transform="translate(430,410)"/>
<path d="M0 0 C26 0 26 0 34 4 C37.74407512 7.74407512 38.29712053 10.87729347 38.5 16 C38.31630179 21.11821229 37.56996587 24.14057744 34 28 C32.34580127 29.3487706 30.68071315 30.68441691 29 32 C29.39380859 32.63091553 29.78761719 33.26183105 30.19335938 33.91186523 C31.96454549 36.75231326 33.73231524 39.5948718 35.5 42.4375 C36.43005859 43.92733398 36.43005859 43.92733398 37.37890625 45.44726562 C38.25869141 46.86362305 38.25869141 46.86362305 39.15625 48.30859375 C39.70087891 49.18314209 40.24550781 50.05769043 40.80664062 50.95874023 C42 53 42 53 42 54 C37.55181597 55.4196332 34.39691333 55.69381093 30 54 C26.79273332 50.13907843 24.54506838 45.70131442 22.36230469 41.20214844 C21.90758789 40.30141602 21.45287109 39.40068359 20.984375 38.47265625 C20.59991211 37.64000244 20.21544922 36.80734863 19.81933594 35.94946289 C17.52419623 33.07275684 17.52419623 33.07275684 10 33 C10 39.93 10 46.86 10 54 C6.7 54 3.4 54 0 54 C0 36.18 0 18.36 0 0 Z " fill="#EFEFF1" transform="translate(328,610)"/>
<path d="M0 0 C25 0 25 0 33 5 C36.95132653 9.35659079 38.31870763 11.95046826 38.2109375 17.91015625 C37.72044268 22.76968826 35.42489283 25.82624293 31.8125 28.875 C30.884375 29.57625 29.95625 30.2775 29 31 C31.82575356 37.14294253 35.29095056 42.70312143 39.00170898 48.33837891 C42 52.90619051 42 52.90619051 42 54 C37.55181597 55.4196332 34.39691333 55.69381093 30 54 C26.79273332 50.13907843 24.54506838 45.70131442 22.36230469 41.20214844 C21.90758789 40.30141602 21.45287109 39.40068359 20.984375 38.47265625 C20.59991211 37.64000244 20.21544922 36.80734863 19.81933594 35.94946289 C17.52419623 33.07275684 17.52419623 33.07275684 10 33 C10 39.93 10 46.86 10 54 C6.7 54 3.4 54 0 54 C0 36.18 0 18.36 0 0 Z " fill="#2D4C71" transform="translate(644,610)"/>
<path d="M0 0 C3.63 0 7.26 0 11 0 C11 6.93 11 13.86 11 21 C17.93 21 24.86 21 32 21 C32 14.07 32 7.14 32 0 C35.63 0 39.26 0 43 0 C43 17.82 43 35.64 43 54 C39.37 54 35.74 54 32 54 C32 46.41 32 38.82 32 31 C25.07 31 18.14 31 11 31 C11 38.59 11 46.18 11 54 C7.37 54 3.74 54 0 54 C0 36.18 0 18.36 0 0 Z " fill="#254367" transform="translate(739,610)"/>
<path d="M0 0 C3.63 0 7.26 0 11 0 C13.38990699 6.40259974 15.77416466 12.80726454 18.15332031 19.21386719 C18.96266061 21.39086968 19.77351394 23.56731032 20.5859375 25.74316406 C21.75663685 28.87937581 22.92179437 32.01759965 24.0859375 35.15625 C24.44746918 36.12115356 24.80900085 37.08605713 25.18148804 38.0802002 C27.12718349 43.34390513 28.75555116 48.5266775 30 54 C26.37 54 22.74 54 19 54 C17.02 48.555 17.02 48.555 15 43 C8.4 42.67 1.8 42.34 -5 42 C-5.66 44.97 -6.32 47.94 -7 51 C-7.33 51.99 -7.66 52.98 -8 54 C-11.63 54 -15.26 54 -19 54 C-18.34874966 48.63391247 -16.64529417 43.95664544 -14.7265625 38.9453125 C-14.40215179 38.08493378 -14.07774109 37.22455505 -13.74349976 36.33810425 C-12.7091538 33.59842063 -11.66722848 30.86169336 -10.625 28.125 C-9.93178409 26.29316075 -9.2390707 24.46113125 -8.546875 22.62890625 C-7.26825074 19.24636703 -5.9866693 15.86498181 -4.70166016 12.48486328 C-3.12205978 8.32783688 -1.55851794 4.16497405 0 0 Z " fill="#325177" transform="translate(607,610)"/>
<path d="M0 0 C0.66 0.66 1.32 1.32 2 2 C5.58343976 2.16677282 5.58343976 2.16677282 9 2 C9.33 2.99 9.66 3.98 10 5 C8.35 4.67 6.7 4.34 5 4 C5 4.66 5 5.32 5 6 C4.34 6 3.68 6 3 6 C3 6.99 3 7.98 3 9 C3.556875 9.061875 4.11375 9.12375 4.6875 9.1875 C7.9283878 10.32619031 9.6312403 12.56890452 12 15 C14.19206384 15.21950154 14.19206384 15.21950154 16 13.25 C17.81653474 11.20639841 18.93136413 9.4934837 20 7 C18.68 7 17.36 7 16 7 C15.67 4.69 15.34 2.38 15 0 C20.27359796 4.4532605 25.33582044 9.08544627 30.3515625 13.828125 C32.78474794 16.06992466 32.78474794 16.06992466 35.34765625 16.84765625 C39.59542564 18.69315253 42.52304778 21.98469375 45.8125 25.1875 C47.17187666 26.49484311 48.53255261 27.80083658 49.89453125 29.10546875 C50.56750244 29.7502417 51.24047363 30.39501465 51.93383789 31.05932617 C56.287852 35.14889939 60.80945861 39.03764229 65.4375 42.8125 C68.59398302 45.50705868 68.91688142 46.13556677 69.3125 50.25 C68.94328153 54.68062166 67.83161153 56.61779734 65 60 C62.52158014 61.96564334 61.05703233 61.99657806 57.875 62.1875 C52.0533394 61.16088458 48.01575309 55.98261981 44 52 C43.07574219 51.13181641 43.07574219 51.13181641 42.1328125 50.24609375 C40.00869267 48.22236765 38.18975831 46.33950689 36.75292969 43.76879883 C34.39389748 40.04264502 31.47150947 37.08804342 28.390625 33.94921875 C27.74559021 33.29041214 27.10055542 32.63160553 26.43597412 31.95283508 C25.07383461 30.56749434 23.70871739 29.18507589 22.34082031 27.80541992 C20.25490348 25.69246704 18.19420969 23.55676601 16.1328125 21.41992188 C14.8035803 20.07404074 13.47289838 18.72958952 12.140625 17.38671875 C11.52995178 16.74619064 10.91927856 16.10566254 10.2901001 15.44572449 C7.0429298 12.23114996 5.76042016 11.07691704 1.05371094 10.60083008 C0.04598633 10.73255615 -0.96173828 10.86428223 -2 11 C-1.67 9.68 -1.34 8.36 -1 7 C-0.34 7 0.32 7 1 7 C0.34 5.02 -0.32 3.04 -1 1 C-0.67 0.67 -0.34 0.34 0 0 Z " fill="#94A0A9" transform="translate(542,474)"/>
<path d="M0 0 C10.56 0 21.12 0 32 0 C32 3.3 32 6.6 32 10 C24.74 10 17.48 10 10 10 C10 13.63 10 17.26 10 21 C16.6 21 23.2 21 30 21 C30 23.97 30 26.94 30 30 C23.4 30 16.8 30 10 30 C10 34.62 10 39.24 10 44 C17.59 44 25.18 44 33 44 C33 47.3 33 50.6 33 54 C22.11 54 11.22 54 0 54 C0 36.18 0 18.36 0 0 Z " fill="#325075" transform="translate(549,610)"/>
<path d="M0 0 C-0.99 2.97 -1.98 5.94 -3 9 C-4.36125 8.505 -5.7225 8.01 -7.125 7.5 C-11.87288423 5.93476344 -15.70759265 4.85379633 -20.375 7.1875 C-22.26271671 8.93097354 -22.26271671 8.93097354 -22.25 11.6875 C-22.12625 12.8321875 -22.12625 12.8321875 -22 14 C-20.88625 14.556875 -19.7725 15.11375 -18.625 15.6875 C-17.90054687 16.05359375 -17.17609375 16.4196875 -16.4296875 16.796875 C-14.75951816 17.62390419 -13.07617392 18.42468423 -11.3828125 19.203125 C-5.66431242 21.88420219 -1.91067393 24.17865214 1 30 C1.39617431 35.84357111 0.99084005 39.79014959 -2 45 C-6.76308829 49.99955366 -10.56954736 52.13795076 -17.5625 52.375 C-23.93210674 52.34400435 -28.76922988 50.61877178 -34 47 C-34.33 46.34 -34.66 45.68 -35 45 C-34.22265625 43.0546875 -34.22265625 43.0546875 -33.0625 40.875 C-32.68222656 40.15054688 -32.30195313 39.42609375 -31.91015625 38.6796875 C-31.45962891 37.84824219 -31.45962891 37.84824219 -31 37 C-29.88625 37.66 -28.7725 38.32 -27.625 39 C-22.86892735 41.3950223 -18.25211847 41.83955797 -13 41 C-10.58878141 39.04366025 -10.58878141 39.04366025 -10.875 35.375 C-10.91625 34.26125 -10.9575 33.1475 -11 32 C-12.16917969 31.41992188 -13.33835937 30.83984375 -14.54296875 30.2421875 C-16.09150972 29.45383937 -17.63966672 28.66473669 -19.1875 27.875 C-19.95642578 27.49601563 -20.72535156 27.11703125 -21.51757812 26.7265625 C-27.15873025 23.8212481 -31.09215355 20.81569289 -34 15 C-34.56557748 9.2311097 -33.60491399 5.44275333 -30 1 C-20.36924138 -6.46875158 -10.46821311 -5.08650702 0 0 Z " fill="#E6E7E9" transform="translate(480,613)"/>
<path d="M0 0 C-1.15585285 3.91211733 -2.35534962 6.8745041 -5 10 C-5.72703125 9.566875 -5.72703125 9.566875 -6.46875 9.125 C-11.63640485 6.26291424 -15.09739384 5.33357672 -21 6 C-26.60868309 8.04932651 -29.3909214 11.10365853 -32.25 16.25 C-33.77546468 21.84337051 -33.76589843 26.97282684 -31.375 32.3125 C-29.1926151 36.10894041 -27.07763265 38.18771882 -23 40 C-15.8150671 41.17504865 -10.29385637 39.40537156 -4 36 C-0.06666667 41.24444444 -0.06666667 41.24444444 0.1875 44.125 C-2.02968904 47.62582481 -6.01719819 49.37754039 -9.87890625 50.58984375 C-17.65438718 52.09338979 -24.74287922 51.62138147 -31.671875 47.6875 C-37.70528854 43.3142875 -42.15604248 38.29565801 -44 31 C-44.93930929 21.54758231 -44.99389758 12.86608351 -39 5 C-28.66855612 -6.58707779 -13.0885665 -8.725711 0 0 Z " fill="#EDEEEF" transform="translate(439,614)"/>
<path d="M0 0 C1.2375 0.66 2.475 1.32 3.75 2 C3.09 4.97 2.43 7.94 1.75 11 C0.47125 10.484375 -0.8075 9.96875 -2.125 9.4375 C-7.38733616 7.64713444 -11.84538773 8.06350142 -17.25 9 C-17.25 11.31 -17.25 13.62 -17.25 16 C-16.13625 16.556875 -15.0225 17.11375 -13.875 17.6875 C-13.15054688 18.05359375 -12.42609375 18.4196875 -11.6796875 18.796875 C-10.00951816 19.62390419 -8.32617392 20.42468423 -6.6328125 21.203125 C-5.76398437 21.61046875 -4.89515625 22.0178125 -4 22.4375 C-2.78570313 22.99244141 -2.78570313 22.99244141 -1.546875 23.55859375 C1.3524272 25.3780538 2.918315 27.10395749 4.75 30 C5.73157258 35.76673891 5.55871837 41.22704049 3.125 46.5625 C-1.55515919 51.36582127 -6.08101172 54.10720581 -12.8125 54.3125 C-18.38416484 54.25522885 -23.49197717 52.96461422 -28.25 50 C-29.6171875 48.0625 -29.6171875 48.0625 -30.25 46 C-28.875 42.75 -28.875 42.75 -27.25 40 C-26.72792969 40.2165625 -26.20585937 40.433125 -25.66796875 40.65625 C-19.406843 43.02473189 -13.902163 43.33571664 -7.25 43 C-7.023125 41.741875 -6.79625 40.48375 -6.5625 39.1875 C-6.37107422 38.12595703 -6.37107422 38.12595703 -6.17578125 37.04296875 C-6.0642934 34.94674137 -6.0642934 34.94674137 -7.40234375 33.3828125 C-9.65321304 31.69822956 -11.89584891 30.74589101 -14.5 29.6875 C-20.84214359 26.89863686 -26.53636314 23.65156569 -29.25 17 C-29.70989183 12.2477844 -29.77078851 10.00300009 -27.5625 5.75 C-20.30375579 -2.88202015 -10.34838209 -4.64855894 0 0 Z " fill="#39597F" transform="translate(534.25,611)"/>
<path d="M0 0 C1.64453125 1.265625 1.64453125 1.265625 2.47265625 3.203125 C2.73978634 6.4086861 1.19457002 8.53755677 -0.35546875 11.265625 C-0.92394531 11.0490625 -1.49242187 10.8325 -2.078125 10.609375 C-8.22967955 8.39111827 -13.18051957 7.0828008 -19.54296875 9.453125 C-23.80261337 12.19822931 -26.36368734 15.64947925 -28.35546875 20.265625 C-29.19729234 26.18025566 -28.28149547 31.0189564 -25.35546875 36.265625 C-21.65310058 40.6041191 -21.65310058 40.6041191 -16.5078125 42.50390625 C-10.26996032 42.71293481 -5.83784956 41.16882429 -0.35546875 38.265625 C3.76171875 44.5625 3.76171875 44.5625 3.26953125 47.515625 C-1.15318694 52.27855228 -6.93873443 53.10450938 -13.10546875 53.515625 C-20.89746803 53.35451223 -26.97742486 50.65982757 -32.55859375 45.24609375 C-38.31859268 38.89757319 -39.80067629 33.67319302 -39.91796875 25.203125 C-39.93279297 24.44733154 -39.94761719 23.69153809 -39.96289062 22.9128418 C-39.83199169 15.74846255 -37.28503832 9.62005983 -32.16796875 4.515625 C-22.91518005 -4.05104589 -11.36907987 -5.1621768 0 0 Z " fill="#2A496E" transform="translate(728.35546875,611.734375)"/>
<path d="M0 0 C1.69995117 1.1628418 1.69995117 1.1628418 3 3 C3.37231445 5.78051758 3.37231445 5.78051758 3.36328125 9.14453125 C3.36263672 10.38009766 3.36199219 11.61566406 3.36132812 12.88867188 C3.34521484 14.18353516 3.32910156 15.47839844 3.3125 16.8125 C3.31733398 18.69098633 3.31733398 18.69098633 3.32226562 20.60742188 C3.25774013 31.98150728 2.04013803 43.07274356 -0.9375 54.0625 C-1.25589844 55.27035156 -1.57429687 56.47820312 -1.90234375 57.72265625 C-2.95187384 60.8563066 -4.09187446 63.30993641 -6 66 C-8.3125 67.125 -8.3125 67.125 -11 67 C-14.125 64.6875 -14.125 64.6875 -17 62 C-17.99 61.34 -18.98 60.68 -20 60 C-19.81824219 59.42894531 -19.63648438 58.85789062 -19.44921875 58.26953125 C-15.17009718 44.46662117 -13.55331513 32.03397078 -13.56420898 17.68676758 C-13.56064642 15.50814165 -13.53339464 13.33074959 -13.50390625 11.15234375 C-13.50205322 9.87351318 -13.5002002 8.59468262 -13.49829102 7.27709961 C-12.91750642 3.45746631 -12.01298465 2.32500518 -9 0 C-5.85000502 -1.57499749 -3.36459118 -0.70833498 0 0 Z " fill="#B7BFC4" transform="translate(592,410)"/>
<path d="M0 0 C10.72350993 -1.02119205 10.72350993 -1.02119205 13.69921875 1.359375 C15.03631206 3.50938551 16.01122559 5.66805176 17 8 C18.10056197 10.12686915 19.20485927 12.25180876 20.3125 14.375 C23 19.72292191 23 19.72292191 23 22 C23.66 22 24.32 22 25 22 C25.23460937 21.18273437 25.46921875 20.36546875 25.7109375 19.5234375 C27.26733657 15.26928005 29.36169958 11.53626604 31.625 7.625 C32.04523438 6.88894531 32.46546875 6.15289063 32.8984375 5.39453125 C33.92752764 3.5936235 34.96310756 1.79642682 36 0 C39.96 0 43.92 0 48 0 C47.2575 1.381875 46.515 2.76375 45.75 4.1875 C45.21503906 5.19554687 44.68007813 6.20359375 44.12890625 7.2421875 C42.54169466 10.13712169 40.78468078 12.87873655 38.96484375 15.6328125 C30.6531077 28.57572843 28.23526346 38.66114984 29 54 C25.7 54 22.4 54 19 54 C19.06703125 52.73929688 19.1340625 51.47859375 19.203125 50.1796875 C19.50373455 35.55566819 15.26350047 25.89559651 7.60400391 13.63183594 C4.89396931 9.18523426 2.4530433 4.59197405 0 0 Z " fill="#F2F2F3" transform="translate(274,610)"/>
<path d="M0 0 C3.3 0 6.6 0 10 0 C10 14.52 10 29.04 10 44 C16.93 44 23.86 44 31 44 C31 47.3 31 50.6 31 54 C20.77 54 10.54 54 0 54 C0 36.18 0 18.36 0 0 Z " fill="#F8F8F9" transform="translate(248,610)"/>
<path d="M0 0 C2.53819334 1.74200217 3.59314788 3.48304401 4.85546875 6.2734375 C4.58844952 8.72906074 4.26521548 9.89736859 2.4296875 11.58203125 C-7.03379405 17.24444568 -16.69626058 20.6774543 -27.44506836 22.92993164 C-30.88034346 23.66103578 -33.18400356 24.29975238 -36.14453125 26.2734375 C-35.81453125 25.2834375 -35.48453125 24.2934375 -35.14453125 23.2734375 C-36.40265625 23.6240625 -37.66078125 23.9746875 -38.95703125 24.3359375 C-42.09169513 25.20953235 -42.92735233 25.34583047 -46.14453125 24.2734375 C-46.14453125 23.6134375 -46.14453125 22.9534375 -46.14453125 22.2734375 C-46.80453125 21.6134375 -47.46453125 20.9534375 -48.14453125 20.2734375 C-48.26953125 17.1484375 -48.26953125 17.1484375 -48.14453125 14.2734375 C-48.99917969 14.15226563 -49.85382813 14.03109375 -50.734375 13.90625 C-52.39146484 13.65488281 -52.39146484 13.65488281 -54.08203125 13.3984375 C-55.73525391 13.15480469 -55.73525391 13.15480469 -57.421875 12.90625 C-58.32035156 12.69742188 -59.21882813 12.48859375 -60.14453125 12.2734375 C-60.47453125 11.6134375 -60.80453125 10.9534375 -61.14453125 10.2734375 C-60.29971191 10.3048584 -59.45489258 10.3362793 -58.58447266 10.36865234 C-38.57811852 11.01384297 -21.78157608 10.61402364 -4.08984375 -0.0390625 C-2.14453125 -0.7265625 -2.14453125 -0.7265625 0 0 Z " fill="#939FA8" transform="translate(549.14453125,503.7265625)"/>
<path d="M0 0 C5.03618747 0.0194418 10.07063273 0.0712215 15.10620117 0.15258789 C16.81801859 0.17574025 18.5299779 0.19015715 20.24194336 0.19555664 C22.70776498 0.20486703 25.17136374 0.24589779 27.63671875 0.29296875 C28.39836838 0.2890361 29.16001801 0.28510345 29.94474792 0.28105164 C34.08642989 0.39398739 35.80578758 0.83653278 39.02270508 3.54418945 C39.6752124 4.35460693 40.32771973 5.16502441 41 6 C39.92598892 8.91517292 39.22189824 10.77810176 37 13 C34.16826905 13.188174 31.43509248 13.2517338 28.60302734 13.22705078 C27.30048759 13.22748886 27.30048759 13.22748886 25.97163391 13.22793579 C23.09296782 13.22653917 20.21455854 13.21096242 17.3359375 13.1953125 C15.3433954 13.19158355 13.35085147 13.18873602 11.35830688 13.18673706 C6.10737061 13.17909132 0.85654452 13.15943477 -4.39434814 13.1373291 C-9.74986276 13.11689091 -15.10539514 13.10773969 -20.4609375 13.09765625 C-30.97400681 13.07618975 -41.48699425 13.04204249 -52 13 C-52 12.67 -52 12.34 -52 12 C-46.27101836 11.83185938 -40.54189172 11.67135687 -34.8125 11.51782227 C-32.8648508 11.46456623 -30.91725675 11.4092506 -28.96972656 11.35180664 C-26.16483448 11.26943621 -23.35982526 11.19455858 -20.5546875 11.12109375 C-19.25590164 11.08054115 -19.25590164 11.08054115 -17.93087769 11.03916931 C-13.47811515 10.93009541 -9.38692086 11.07331757 -5 12 C-4.67 10.35 -4.34 8.7 -4 7 C-3.34 7 -2.68 7 -2 7 C-1.34 4.69 -0.68 2.38 0 0 Z " fill="#7D8D98" transform="translate(515,564)"/>
<path d="M0 0 C3.3 0 6.6 0 10 0 C10 17.82 10 35.64 10 54 C6.7 54 3.4 54 0 54 C0 36.18 0 18.36 0 0 Z " fill="#EDEEEF" transform="translate(376,610)"/>
<path d="M0 0 C3.63 0 7.26 0 11 0 C11 6.93 11 13.86 11 21 C17.93 21 24.86 21 32 21 C32 14.07 32 7.14 32 0 C35.63 0 39.26 0 43 0 C43 17.82 43 35.64 43 54 C39.7 54 36.4 54 33 54 C33 46.41 33 38.82 33 31 C33.33 31 33.66 31 34 31 C34 37.93 34 44.86 34 52 C35.98 52 37.96 52 40 52 C40.33 35.5 40.66 19 41 2 C38.69 2 36.38 2 34 2 C34.01571045 2.84763916 34.01571045 2.84763916 34.03173828 3.71240234 C34.07324788 6.26655653 34.0993096 8.82063982 34.125 11.375 C34.14175781 12.26445313 34.15851562 13.15390625 34.17578125 14.0703125 C34.18544922 15.34648438 34.18544922 15.34648438 34.1953125 16.6484375 C34.21102295 17.82672119 34.21102295 17.82672119 34.22705078 19.02880859 C34 21 34 21 32 23 C29.87695312 23.25878906 29.87695312 23.25878906 27.28125 23.265625 C26.34925781 23.26820313 25.41726563 23.27078125 24.45703125 23.2734375 C23.48121094 23.26570312 22.50539063 23.25796875 21.5 23.25 C20.03626953 23.26160156 20.03626953 23.26160156 18.54296875 23.2734375 C17.61097656 23.27085937 16.67898438 23.26828125 15.71875 23.265625 C14.86216797 23.26336914 14.00558594 23.26111328 13.12304688 23.25878906 C11 23 11 23 9 21 C8.77294922 19.02880859 8.77294922 19.02880859 8.8046875 16.6484375 C8.81113281 15.79765625 8.81757812 14.946875 8.82421875 14.0703125 C8.84097656 13.18085937 8.85773437 12.29140625 8.875 11.375 C8.88402344 10.4778125 8.89304687 9.580625 8.90234375 8.65625 C8.9259503 6.43723414 8.9588769 4.21874923 9 2 C6.69 2 4.38 2 2 2 C2 18.5 2 35 2 52 C4.31 52 6.62 52 9 52 C9 45.07 9 38.14 9 31 C10.32 30.34 11.64 29.68 13 29 C12.67 29.66 12.34 30.32 12 31 C11.84733388 32.73868744 11.75067404 34.48247501 11.68359375 36.2265625 C11.64169922 37.2578125 11.59980469 38.2890625 11.55664062 39.3515625 C11.51732422 40.43179688 11.47800781 41.51203125 11.4375 42.625 C11.39431641 43.71296875 11.35113281 44.8009375 11.30664062 45.921875 C11.20035573 48.6144257 11.09965496 51.30719576 11 54 C7.37 54 3.74 54 0 54 C0 36.18 0 18.36 0 0 Z " fill="#2A4A71" transform="translate(739,610)"/>
<path d="M0 0 C1.69335938 1.06713867 1.69335938 1.06713867 3 3 C3.29599623 5.63335225 3.41718043 8.04178547 3.40625 10.67578125 C3.41708618 11.43739059 3.42792236 12.19899994 3.43908691 12.98368835 C3.47335417 15.42670995 3.48891085 17.86927004 3.5 20.3125 C3.61394091 44.81722596 8.49181295 65.1350899 25.875 83.375 C34.15490071 91.25879435 43.40447372 95.9469835 54 100 C55.66745315 100.66469708 57.33437965 101.33072346 59 102 C54.9700885 103.67241327 51.80635766 102.18394582 48 100.625 C47.00468262 100.21834106 47.00468262 100.21834106 45.98925781 99.8034668 C27.65890419 91.90207336 13.87628478 75.86398657 6.0625 57.8203125 C0.87168401 44.04174947 0.81046435 29.88073693 0.44775391 15.34350586 C0.39627366 13.33176157 0.33886557 11.32017168 0.28125 9.30859375 C0.25095703 8.12064209 0.22066406 6.93269043 0.18945312 5.70874023 C0.30356277 3.08488008 0.30356277 3.08488008 -1 2 C-5.65088715 1.69476038 -5.65088715 1.69476038 -10 3 C-10.05039358 7.40672442 -10.0861752 11.813285 -10.10986328 16.22021484 C-10.11976443 17.71145558 -10.13328888 19.20267779 -10.15087891 20.69384766 C-10.45467953 47.16024353 -5.50034346 71.83033811 13.3503418 91.54589844 C23.65138919 101.84532541 35.48105946 108.76930712 49 114 C45.13377995 115.27142727 43.15911098 114.45107438 39.51831055 112.65112305 C38.83164307 112.29187744 38.14497559 111.93263184 37.4375 111.5625 C36.72440674 111.19487549 36.01131348 110.82725098 35.27661133 110.44848633 C14.65350626 99.56426336 0.24929168 82.68435353 -8 61 C-11.60740748 49.17545413 -12.71078546 37.69035313 -12.89379883 25.36523438 C-12.93824554 22.57825191 -13.01927419 19.79384901 -13.10351562 17.0078125 C-13.14275945 15.22660825 -13.17994912 13.44535726 -13.21484375 11.6640625 C-13.23965317 10.83605133 -13.26446259 10.00804016 -13.2900238 9.15493774 C-13.34483356 3.43418336 -13.34483356 3.43418336 -11.66798401 1.32284546 C-7.84952279 -1.70550137 -4.51496266 -0.967492 0 0 Z " fill="#EBEEEF" transform="translate(430,410)"/>
<path d="M0 0 C1.4282618 0.00031703 2.85654759 0.01163717 4.28466797 0.03173828 C5.41242142 0.03598312 5.41242142 0.03598312 6.56295776 0.04031372 C8.96775125 0.05152204 11.37217428 0.07662726 13.77685547 0.10205078 C15.40575635 0.11207976 17.03466305 0.12120576 18.66357422 0.12939453 C22.65981103 0.15146343 26.65577041 0.18599728 30.65185547 0.22705078 C29.27685547 2.22705078 29.27685547 2.22705078 27.65185547 4.22705078 C26.99185547 4.22705078 26.33185547 4.22705078 25.65185547 4.22705078 C25.65185547 3.23705078 25.65185547 2.24705078 25.65185547 1.22705078 C21.87885189 2.24678148 20.84979403 2.8857774 18.83935547 6.35205078 C18.44748047 7.30080078 18.05560547 8.24955078 17.65185547 9.22705078 C18.64185547 9.55705078 19.63185547 9.88705078 20.65185547 10.22705078 C20.98185547 8.90705078 21.31185547 7.58705078 21.65185547 6.22705078 C24.12685547 6.72205078 24.12685547 6.72205078 26.65185547 7.22705078 C26.32185547 8.54705078 25.99185547 9.86705078 25.65185547 11.22705078 C21.57751942 11.4442929 17.50275866 11.64110879 13.42651367 11.8190918 C12.04017828 11.88249771 10.65408569 11.95146794 9.26831055 12.02612305 C7.27579353 12.13249533 5.28215565 12.21717304 3.28857422 12.30126953 C2.08934326 12.35887451 0.8901123 12.41647949 -0.34545898 12.47583008 C-3.34814453 12.22705078 -3.34814453 12.22705078 -5.2746582 10.94506836 C-6.34814453 9.22705078 -6.34814453 9.22705078 -6.16064453 5.66455078 C-5.10026188 1.17831648 -4.65334439 0.31556149 0 0 Z " fill="#98A3AC" transform="translate(465.34814453125,564.77294921875)"/>
<path d="M0 0 C10.56 0 21.12 0 32 0 C32 2.97 32 5.94 32 9 C24.41 9 16.82 9 9 9 C9 8.67 9 8.34 9 8 C15.93 8 22.86 8 30 8 C30 6.02 30 4.04 30 2 C20.43 2 10.86 2 1 2 C1 18.5 1 35 1 52 C10.9 52 20.8 52 31 52 C31 50.02 31 48.04 31 46 C30.3387915 46.00523682 29.67758301 46.01047363 28.99633789 46.01586914 C26.01840149 46.03657656 23.04048018 46.04964012 20.0625 46.0625 C19.02158203 46.07087891 17.98066406 46.07925781 16.90820312 46.08789062 C15.42416992 46.09272461 15.42416992 46.09272461 13.91015625 46.09765625 C12.53549194 46.10551147 12.53549194 46.10551147 11.13305664 46.11352539 C9 46 9 46 8 45 C7.92686433 42.46950598 7.90752473 39.96695163 7.9375 37.4375 C7.94201172 36.72658203 7.94652344 36.01566406 7.95117188 35.28320312 C7.96299136 33.52209987 7.98092737 31.76103964 8 30 C8.33 30 8.66 30 9 30 C9 34.62 9 39.24 9 44 C16.92 44 24.84 44 33 44 C33 47.3 33 50.6 33 54 C22.11 54 11.22 54 0 54 C0 36.18 0 18.36 0 0 Z " fill="#41648F" transform="translate(549,610)"/>
<path d="M0 0 C12.20760475 -0.49323656 12.20760475 -0.49323656 15.88671875 1.796875 C18 4 18 4 18.625 7.5 C18 11 18 11 15.88671875 13.203125 C10.83684177 16.3464855 5.81899824 15.23511104 0 15 C0 10.05 0 5.1 0 0 Z " fill="#0A1728" transform="translate(338,619)"/>
<path d="M0 0 C11.53245501 -0.27458226 11.53245501 -0.27458226 15 2 C16.55460305 5.10920609 16.72720693 8.63083028 16 12 C13.69922946 14.46077616 12.35318202 14.96568828 8.984375 15.29296875 C7.91703125 15.25816406 6.8496875 15.22335937 5.75 15.1875 C2.90375 15.0946875 2.90375 15.0946875 0 15 C0 10.05 0 5.1 0 0 Z " fill="#051122" transform="translate(655,619)"/>
<path d="M0 0 C8.58 0 17.16 0 26 0 C26.33 0.66 26.66 1.32 27 2 C18.75 2 10.5 2 2 2 C2 18.5 2 35 2 52 C3.98 52 5.96 52 8 52 C7.99476318 51.42967041 7.98952637 50.85934082 7.98413086 50.27172852 C7.96341779 47.70199677 7.9503581 45.13228253 7.9375 42.5625 C7.92912109 41.66466797 7.92074219 40.76683594 7.91210938 39.84179688 C7.90888672 38.98779297 7.90566406 38.13378906 7.90234375 37.25390625 C7.89710693 36.46314697 7.89187012 35.6723877 7.88647461 34.85766602 C8 33 8 33 9 32 C10.99958364 31.95919217 13.00045254 31.95745644 15 32 C15 32.33 15 32.66 15 33 C13.35 33 11.7 33 10 33 C10 39.93 10 46.86 10 54 C6.7 54 3.4 54 0 54 C0 36.18 0 18.36 0 0 Z " fill="#FCFCFD" transform="translate(328,610)"/>
<path d="M0 0 C25 0 25 0 32 4 C31.01 4.495 31.01 4.495 30 5 C28.35 4.34 26.7 3.68 25 3 C13.615 2.505 13.615 2.505 2 2 C2 18.5 2 35 2 52 C4.31 52 6.62 52 9 52 C9 45.73 9 39.46 9 33 C9.33 33 9.66 33 10 33 C10 39.93 10 46.86 10 54 C6.7 54 3.4 54 0 54 C0 36.18 0 18.36 0 0 Z " fill="#33547C" transform="translate(644,610)"/>
<path d="M0 0 C3.3 0 6.6 0 10 0 C10 17.82 10 35.64 10 54 C6.7 54 3.4 54 0 54 C0 36.18 0 18.36 0 0 Z M2 2 C2 18.5 2 35 2 52 C4.31 52 6.62 52 9 52 C9 35.5 9 19 9 2 C6.69 2 4.38 2 2 2 Z " fill="#FCFDFD" transform="translate(376,610)"/>
<path d="M0 0 C0.33 0.66 0.66 1.32 1 2 C5.62 2 10.24 2 15 2 C15.66 3.65 16.32 5.3 17 7 C16.34 7 15.68 7 15 7 C15 8.65 15 10.3 15 12 C8.4 12 1.8 12 -5 12 C-4.67 10.35 -4.34 8.7 -4 7 C-3.34 7 -2.68 7 -2 7 C-1.34 4.69 -0.68 2.38 0 0 Z " fill="#84939E" transform="translate(515,564)"/>
<path d="M0 0 C0.33 0 0.66 0 1 0 C1 4.62 1 9.24 1 14 C8.92 14 16.84 14 25 14 C25 17.3 25 20.6 25 24 C14.44 24 3.88 24 -7 24 C-7 23.34 -7 22.68 -7 22 C2.9 22 12.8 22 23 22 C23 20.02 23 18.04 23 16 C22.3387915 16.00523682 21.67758301 16.01047363 20.99633789 16.01586914 C18.01840149 16.03657656 15.04048018 16.04964012 12.0625 16.0625 C11.02158203 16.07087891 9.98066406 16.07925781 8.90820312 16.08789062 C7.42416992 16.09272461 7.42416992 16.09272461 5.91015625 16.09765625 C4.53549194 16.10551147 4.53549194 16.10551147 3.13305664 16.11352539 C1 16 1 16 0 15 C-0.07313567 12.46950598 -0.09247527 9.96695163 -0.0625 7.4375 C-0.05798828 6.72658203 -0.05347656 6.01566406 -0.04882812 5.28320312 C-0.03700864 3.52209987 -0.01907263 1.76103964 0 0 Z " fill="#3A5B84" transform="translate(557,640)"/>
<path d="M0 0 C2.14642449 3.21963674 3.35881354 6.44429859 4.625 10.0625 C4.85445312 10.69994141 5.08390625 11.33738281 5.3203125 11.99414062 C7 16.738258 7 16.738258 7 19 C2.71 19 -1.58 19 -6 19 C-4.29446483 12.50272314 -2.47390635 6.2436684 0 0 Z " fill="#030916" transform="translate(612,624)"/>
<path d="M0 0 C0.5775 0.2475 1.155 0.495 1.75 0.75 C0.76 2.235 0.76 2.235 -0.25 3.75 C-1.57 3.42 -2.89 3.09 -4.25 2.75 C-4.22643433 4.09408936 -4.22643433 4.09408936 -4.20239258 5.46533203 C-4.1505819 8.86122683 -4.11332506 12.25668839 -4.08520508 15.65283203 C-4.07032376 17.1092806 -4.05001204 18.56568608 -4.02368164 20.02197266 C-3.79590516 32.9650361 -5.4964038 44.47586976 -9.89453125 56.76171875 C-10.54248892 59.06144895 -10.54248892 59.06144895 -8.25 61.75 C-9.9 61.09 -11.55 60.43 -13.25 59.75 C-13.06824219 59.17894531 -12.88648438 58.60789062 -12.69921875 58.01953125 C-8.42009718 44.21662117 -6.80331513 31.78397078 -6.81420898 17.43676758 C-6.81064642 15.25814165 -6.78339464 13.08074959 -6.75390625 10.90234375 C-6.75205322 9.62351318 -6.7502002 8.34468262 -6.74829102 7.02709961 C-6.25 3.75 -6.25 3.75 -4.35913086 1.28735352 C-2.25 -0.25 -2.25 -0.25 0 0 Z " fill="#DBE0E3" transform="translate(585.25,410.25)"/>
<path d="M0 0 C6.93 0 13.86 0 21 0 C21 7.59 21 15.18 21 23 C20.67 23 20.34 23 20 23 C20 16.07 20 9.14 20 2 C14.06 2 8.12 2 2 2 C2.02320313 3.49273438 2.04640625 4.98546875 2.0703125 6.5234375 C2.08906746 8.47395335 2.10726795 10.42447458 2.125 12.375 C2.14175781 13.35984375 2.15851562 14.3446875 2.17578125 15.359375 C2.18222656 16.30039062 2.18867187 17.24140625 2.1953125 18.2109375 C2.20578613 19.08024902 2.21625977 19.94956055 2.22705078 20.84521484 C2 23 2 23 0 25 C-2.3828125 25.1953125 -2.3828125 25.1953125 -5.125 25.125 C-6.49011719 25.09792969 -6.49011719 25.09792969 -7.8828125 25.0703125 C-8.58148437 25.04710937 -9.28015625 25.02390625 -10 25 C-10.33 24.34 -10.66 23.68 -11 23 C-7.37 23 -3.74 23 0 23 C0 15.41 0 7.82 0 0 Z " fill="#000714" transform="translate(750,641)"/>
<path d="M0 0 C1.79133978 -0.05391993 3.58313899 -0.09275571 5.375 -0.125 C6.37273438 -0.14820313 7.37046875 -0.17140625 8.3984375 -0.1953125 C11 0 11 0 13 2 C13.22705078 3.97119141 13.22705078 3.97119141 13.1953125 6.3515625 C13.18564453 7.62773438 13.18564453 7.62773438 13.17578125 8.9296875 C13.15902344 9.81914063 13.14226563 10.70859375 13.125 11.625 C13.11597656 12.5221875 13.10695313 13.419375 13.09765625 14.34375 C13.07405132 16.56261322 13.03817962 18.7813397 13 21 C18.94 21 24.88 21 31 21 C31 14.73 31 8.46 31 2 C31.33 2 31.66 2 32 2 C32 8.93 32 15.86 32 23 C25.07 23 18.14 23 11 23 C11 16.07 11 9.14 11 2 C7.37 2 3.74 2 0 2 C0 1.34 0 0.68 0 0 Z " fill="#000815" transform="translate(739,608)"/>
<path d="M0 0 C1.27491216 2.54982433 1.02596616 4.16465424 0.87890625 7.0078125 C0.83056641 7.99394531 0.78222656 8.98007812 0.73242188 9.99609375 C0.67634766 11.02863281 0.62027344 12.06117188 0.5625 13.125 C0.51029297 14.16527344 0.45808594 15.20554687 0.40429688 16.27734375 C0.27439249 18.85181239 0.13782019 21.42594298 0 24 C-3.3 24 -6.6 24 -10 24 C-10 17.07 -10 10.14 -10 3 C-9.34 3 -8.68 3 -8 3 C-8 9.27 -8 15.54 -8 22 C-6.02 22 -4.04 22 -2 22 C-2.01047363 21.44014404 -2.02094727 20.88028809 -2.03173828 20.3034668 C-2.07333326 17.76485693 -2.09933685 15.2263188 -2.125 12.6875 C-2.14175781 11.80642578 -2.15851563 10.92535156 -2.17578125 10.01757812 C-2.18222656 9.17001953 -2.18867188 8.32246094 -2.1953125 7.44921875 C-2.20578613 6.66893311 -2.21625977 5.88864746 -2.22705078 5.0847168 C-2 3 -2 3 0 0 Z " fill="#FDFEFD" transform="translate(303,640)"/>
<path d="M0 0 C7.59 0 15.18 0 23 0 C23 0.33 23 0.66 23 1 C16.07 1 9.14 1 2 1 C2 11.89 2 22.78 2 34 C2.66 34 3.32 34 4 34 C4 34.66 4 35.32 4 36 C2.68 35.67 1.36 35.34 0 35 C0 23.45 0 11.9 0 0 Z " fill="#F5F6F8" transform="translate(451,362)"/>
<path d="M0 0 C5.24020563 1.87150201 6.42214365 6.20546704 8.671875 10.94921875 C10.77596657 15.78244086 12 19.66072198 12 25 C3.75 25 -4.5 25 -13 25 C-11 23 -11 23 -8.84521484 22.77294922 C-7.97590332 22.78342285 -7.1065918 22.79389648 -6.2109375 22.8046875 C-5.26992188 22.81113281 -4.32890625 22.81757813 -3.359375 22.82421875 C-2.37453125 22.84097656 -1.3896875 22.85773438 -0.375 22.875 C0.61757813 22.88402344 1.61015625 22.89304687 2.6328125 22.90234375 C5.08878134 22.92595884 7.54427168 22.95889201 10 23 C9.0910499 20.47614855 8.17313901 17.95616053 7.25 15.4375 C6.99734375 14.73302734 6.7446875 14.02855469 6.484375 13.30273438 C4.73334144 8.55305586 2.61944799 4.33347808 0 0 Z " fill="#EEEFF1" transform="translate(549,325)"/>
<path d="M0 0 C1.06057617 -0.00580078 1.06057617 -0.00580078 2.14257812 -0.01171875 C5.54644531 -0.00532651 8.68474463 0.06046188 11.9375 1.125 C11.9375 1.785 11.9375 2.445 11.9375 3.125 C11.36717041 3.11976318 10.79684082 3.11452637 10.20922852 3.10913086 C7.63949677 3.08841779 5.06978253 3.0753581 2.5 3.0625 C1.60216797 3.05412109 0.70433594 3.04574219 -0.22070312 3.03710938 C-1.07470703 3.03388672 -1.92871094 3.03066406 -2.80859375 3.02734375 C-3.59935303 3.02210693 -4.3901123 3.01687012 -5.20483398 3.01147461 C-7.07842689 2.92004091 -7.07842689 2.92004091 -8.0625 4.125 C-10.73308851 4.26615161 -13.38682238 4.16747107 -16.0625 4.125 C-16.3925 4.785 -16.7225 5.445 -17.0625 6.125 C-18.72571482 6.47515049 -20.39284549 6.80697057 -22.0625 7.125 C-23.0525 7.785 -24.0425 8.445 -25.0625 9.125 C-26.0525 9.125 -27.0425 9.125 -28.0625 9.125 C-27.7325 8.135 -27.4025 7.145 -27.0625 6.125 C-24.078125 4.7734375 -24.078125 4.7734375 -20.3125 3.5 C-19.08015625 3.07460938 -17.8478125 2.64921875 -16.578125 2.2109375 C-10.93310208 0.46725264 -5.89821352 -0.03243747 0 0 Z " fill="#E2E5E8" transform="translate(507.0625,303.875)"/>
<path d="M0 0 C12.87 0.495 12.87 0.495 26 1 C26 9.25 26 17.5 26 26 C21.9915966 23.9957983 20.58590343 22.50944037 18 19 C21.875 20.875 21.875 20.875 23 22 C23.33 15.4 23.66 8.8 24 2 C16.41 2 8.82 2 1 2 C0.67 1.34 0.34 0.68 0 0 Z " fill="#B9C0C5" transform="translate(535,362)"/>
<path d="M0 0 C0.66 0 1.32 0 2 0 C1.36762324 3.66778523 1.36762324 3.66778523 -0.37890625 5.24609375 C-2.61181853 7.66194342 -3.46219856 10.18248699 -4.625 13.25 C-5.05039062 14.34828125 -5.47578125 15.4465625 -5.9140625 16.578125 C-7.92399869 22.91159299 -8.21808042 29.34835823 -8.5625 35.9375 C-8.60568359 36.71673828 -8.64886719 37.49597656 -8.69335938 38.29882812 C-8.79828077 40.19907117 -8.8995245 42.09951669 -9 44 C-12.68869047 38.01513674 -11.87497476 29.60077639 -10.59716797 22.88183594 C-8.63531163 14.72851959 -5.87751813 6.20500447 0 0 Z " fill="#E0E3E5" transform="translate(463,404)"/>
<path d="M0 0 C2 1 2 1 2 1 Z M-23 1 C-15.41 1 -7.82 1 0 1 C0 1.33 0 1.66 0 2 C-7.26 2 -14.52 2 -22 2 C-21.67 10.91 -21.34 19.82 -21 29 C-20.34 27.68 -19.68 26.36 -19 25 C-18.34 25 -17.68 25 -17 25 C-16.34 24.01 -15.68 23.02 -15 22 C-14.67 22.66 -14.34 23.32 -14 24 C-14.42152344 24.62648438 -14.84304688 25.25296875 -15.27734375 25.8984375 C-15.82519531 26.71570313 -16.37304688 27.53296875 -16.9375 28.375 C-17.48277344 29.18710937 -18.02804687 29.99921875 -18.58984375 30.8359375 C-20.01093879 32.92719184 -20.01093879 32.92719184 -21 35 C-21.66 34.67 -22.32 34.34 -23 34 C-23 23.11 -23 12.22 -23 1 Z " fill="#BBC2C7" transform="translate(476,362)"/>
<path d="M0 0 C-2 2 -2 2 -4.4375 2.9375 C-7.00086502 3.78908035 -7.00086502 3.78908035 -8.375 5.5 C-10.8405555 7.77589738 -13.80675352 8.10365011 -17 9 C-19.13344768 10.3916876 -19.13344768 10.3916876 -21 12 C-22.1446875 12.6496875 -22.1446875 12.6496875 -23.3125 13.3125 C-26.85270305 15.5354182 -29.88396885 18.22520569 -33 21 C-28.34575889 10.70221049 -17.40419795 4.70168741 -7.359375 0.6640625 C-4.80491061 -0.05490927 -2.64069352 -0.1217341 0 0 Z " fill="#DFE2E4" transform="translate(498,382)"/>
<path d="M0 0 C0.66 0 1.32 0 2 0 C2.02469081 4.3782512 2.04285557 8.75646567 2.05493164 13.13476562 C2.05996514 14.62468166 2.06679242 16.11459274 2.07543945 17.60449219 C2.08754805 19.74415304 2.09323807 21.88374868 2.09765625 24.0234375 C2.10289307 25.31169434 2.10812988 26.59995117 2.11352539 27.92724609 C2 31 2 31 1 33 C0.01 32.67 -0.98 32.34 -2 32 C-1.83757812 31.484375 -1.67515625 30.96875 -1.5078125 30.4375 C-0.84541366 27.25798557 -0.86812228 24.24628473 -0.875 21 C-0.87242187 19.783125 -0.86984375 18.56625 -0.8671875 17.3125 C-0.87974137 14.14904096 -0.87974137 14.14904096 -1.5703125 11.75 C-2 10 -2 10 -1 7 C-0.64456573 4.66993089 -0.3086247 2.33672984 0 0 Z " fill="#8896A0" transform="translate(512,532)"/>
<path d="M0 0 C4.1469231 1.66078231 7.06709844 4.65983939 10.25 7.6875 C11.41206519 8.77678382 12.5748235 9.86532869 13.73828125 10.953125 C14.29854004 11.47841797 14.85879883 12.00371094 15.43603516 12.54492188 C19.63877002 16.45505297 23.99099431 20.18398356 28.4375 23.8125 C31 26 31 26 32 28 C32.25 31.4375 32.25 31.4375 32 35 C30.484375 36.72265625 30.484375 36.72265625 29 38 C29.12761719 37.40574219 29.25523437 36.81148437 29.38671875 36.19921875 C29.94429719 31.5430767 29.72069718 28.95313825 26.83203125 25.1328125 C23.97133372 22.28395234 21.06162196 19.63063666 18 17 C17.28714844 16.36191406 16.57429687 15.72382813 15.83984375 15.06640625 C14.58950392 13.95470779 13.32926967 12.85402101 12.05859375 11.765625 C9.51216273 9.58158929 7.00348211 7.35812008 4.5 5.125 C3.6440625 4.36445313 2.788125 3.60390625 1.90625 2.8203125 C1.2771875 2.21960938 0.648125 1.61890625 0 1 C0 0.67 0 0.34 0 0 Z " fill="#E7EAEB" transform="translate(579,493)"/>
<path d="M0 0 C0.33 0 0.66 0 1 0 C1 11.55 1 23.1 1 35 C-0.485 35.495 -0.485 35.495 -2 36 C-2.04944066 31.35524041 -2.08573863 26.71063404 -2.10986328 22.06567383 C-2.11992041 20.48556856 -2.13356785 18.9054819 -2.15087891 17.32543945 C-2.17514022 15.0541525 -2.18648582 12.78311164 -2.1953125 10.51171875 C-2.20563507 9.80536789 -2.21595764 9.09901703 -2.22659302 8.3712616 C-2.22743775 4.67802208 -2.10720523 3.16080784 0 0 Z " fill="#132236" transform="translate(435,413)"/>
<path d="M0 0 C1.96849195 0.23354989 3.93671539 0.47002547 5.90234375 0.7265625 C7.5163353 0.93695246 9.13276203 1.12872296 10.75 1.3125 C13.71503907 2.21848416 14.83082361 3.77056871 17 6 C18.46312876 7.00297339 19.9442966 7.97987534 21.4375 8.9375 C25.11514127 11.32250498 28.05239405 13.76714187 31 17 C30.67 17.66 30.34 18.32 30 19 C29.154375 18.071875 28.30875 17.14375 27.4375 16.1875 C24.83876324 13.5948209 22.47843373 12.08566265 19 10.78125 C16.50576645 9.80694002 14.14477706 8.63488853 11.75 7.4375 C10.50476563 6.81681641 10.50476563 6.81681641 9.234375 6.18359375 C5.92121591 4.42854619 2.97931923 2.26017321 0 0 Z " fill="#1F2F46" transform="translate(520,303)"/>
<path d="M0 0 C1.76451981 3.25917189 2.0950302 5.29382234 2 9 C2.33 9.99 2.66 10.98 3 12 C2.814375 12.845625 2.62875 13.69125 2.4375 14.5625 C2.293125 15.366875 2.14875 16.17125 2 17 C2.66 17.66 3.32 18.32 4 19 C3.60467975 21.45098556 2.78698574 23.63904279 2 26 C2.66 26.33 3.32 26.66 4 27 C2.68 29.97 1.36 32.94 0 36 C-0.66 35.67 -1.32 35.34 -2 35 C-1.505 34.505 -1.505 34.505 -1 34 C-0.84011509 31.48119483 -0.74065775 28.98657734 -0.68359375 26.46484375 C-0.66281265 25.71159317 -0.64203156 24.95834259 -0.62062073 24.18226624 C-0.55504575 21.7674401 -0.49620379 19.35250202 -0.4375 16.9375 C-0.3943223 15.30402471 -0.35070827 13.6705609 -0.30664062 12.03710938 C-0.19935638 8.02485536 -0.09811179 4.01248836 0 0 Z " fill="#8A98A1" transform="translate(498,529)"/>
<path d="M0 0 C1.39456452 0.00667256 2.78911118 0.01863093 4.18359375 0.03515625 C4.89451172 0.03966797 5.60542969 0.04417969 6.33789062 0.04882812 C8.09899388 0.06064761 9.86005411 0.07858362 11.62109375 0.09765625 C11.62109375 0.42765625 11.62109375 0.75765625 11.62109375 1.09765625 C7.00109375 1.09765625 2.38109375 1.09765625 -2.37890625 1.09765625 C-2.37890625 6.04765625 -2.37890625 10.99765625 -2.37890625 16.09765625 C1.91109375 16.09765625 6.20109375 16.09765625 10.62109375 16.09765625 C10.62109375 16.75765625 10.62109375 17.41765625 10.62109375 18.09765625 C8.30865583 18.12451037 5.99613105 18.14398466 3.68359375 18.16015625 C2.39582031 18.17175781 1.10804688 18.18335938 -0.21875 18.1953125 C-3.37890625 18.09765625 -3.37890625 18.09765625 -4.37890625 17.09765625 C-4.47871839 14.42034245 -4.517705 11.7746145 -4.50390625 9.09765625 C-4.50777344 8.34742188 -4.51164062 7.5971875 -4.515625 6.82421875 C-4.50354186 0.13016017 -4.50354186 0.13016017 0 0 Z " fill="#FBFCFC" transform="translate(340.37890625,617.90234375)"/>
<path d="M0 0 C0.66 0.33 1.32 0.66 2 1 C1.67 1.33 1.34 1.66 1 2 C0.84259395 3.70563778 0.74906608 5.41727244 0.68359375 7.12890625 C0.64169922 8.16337891 0.59980469 9.19785156 0.55664062 10.26367188 C0.51732422 11.35228516 0.47800781 12.44089844 0.4375 13.5625 C0.39431641 14.65498047 0.35113281 15.74746094 0.30664062 16.87304688 C0.20017932 19.58189564 0.09816484 22.29083992 0 25 C-2.97 25 -5.94 25 -9 25 C-9 24.34 -9 23.68 -9 23 C-6.69 23 -4.38 23 -2 23 C-2.01047363 22.37432129 -2.02094727 21.74864258 -2.03173828 21.10400391 C-2.07323191 18.2777099 -2.09930473 15.45147989 -2.125 12.625 C-2.15013672 11.14773438 -2.15013672 11.14773438 -2.17578125 9.640625 C-2.18222656 8.69960938 -2.18867187 7.75859375 -2.1953125 6.7890625 C-2.20578613 5.91975098 -2.21625977 5.05043945 -2.22705078 4.15478516 C-2 2 -2 2 0 0 Z " fill="#2C4D74" transform="translate(750,639)"/>
<path d="M0 0 C4 3 4 3 4.64453125 4.97265625 C5.11111111 10.77777778 5.11111111 10.77777778 4 13 C1.36 12.67 -1.28 12.34 -4 12 C-2.68 8.04 -1.36 4.08 0 0 Z " fill="#061528" transform="translate(612,629)"/>
<path d="M0 0 C0.86625 0.37125 0.86625 0.37125 1.75 0.75 C0.76 2.235 0.76 2.235 -0.25 3.75 C-1.57 3.42 -2.89 3.09 -4.25 2.75 C-4.25 11.66 -4.25 20.57 -4.25 29.75 C-4.58 29.75 -4.91 29.75 -5.25 29.75 C-5.86193618 23.07333923 -6.35732621 16.38984374 -6.5625 9.6875 C-6.59988281 8.64464844 -6.63726563 7.60179687 -6.67578125 6.52734375 C-6.08376795 2.665679 -4.22986798 -0.46998533 0 0 Z " fill="#EBEEF0" transform="translate(585.25,410.25)"/>
<path d="M0 0 C8.11124452 4.30392567 13.55212466 9.00359372 18.875 16.5625 C19.46547119 17.39382446 19.46547119 17.39382446 20.06787109 18.24194336 C22.25093307 21.4561354 23.55291185 24.12763973 24 28 C21.22412068 26.61206034 20.89350139 24.91338867 19.5625 22.125 C15.556599 14.56706856 9.56752659 7.71412859 2.16015625 3.3125 C1.44730469 2.879375 0.73445312 2.44625 0 2 C0 1.34 0 0.68 0 0 Z " fill="#EAECEE" transform="translate(539,388)"/>
<path d="M0 0 C0.66 0 1.32 0 2 0 C2 3.63 2 7.26 2 11 C2.83144531 10.9278125 3.66289062 10.855625 4.51953125 10.78125 C6.14955078 10.64203125 6.14955078 10.64203125 7.8125 10.5 C8.89144531 10.4071875 9.97039062 10.314375 11.08203125 10.21875 C14 10 14 10 17 10 C14.51565563 12.34290892 13.22268407 12.97982934 9.765625 13.29296875 C8.60546875 13.25816406 7.4453125 13.22335937 6.25 13.1875 C4.1875 13.125625 2.125 13.06375 0 13 C0 8.71 0 4.42 0 0 Z " fill="#02060F" transform="translate(338,621)"/>
<path d="M0 0 C1.98 0.99 1.98 0.99 4 2 C3.835 2.9075 3.67 3.815 3.5 4.75 C2.60932111 10.95930429 2.00437234 18.01311701 4 24 C3.01 24.33 2.02 24.66 1 25 C-0.10102642 16.64399592 -0.10094304 8.41192037 0 0 Z " fill="#C3C9CD" transform="translate(419,431)"/>
<path d="M0 0 C-0.66 1.98 -1.32 3.96 -2 6 C-5.3 6 -8.6 6 -12 6 C-12 5.67 -12 5.34 -12 5 C-9.03 5 -6.06 5 -3 5 C-3.33 3.35 -3.66 1.7 -4 0 C-11.92 0 -19.84 0 -28 0 C-28 -0.33 -28 -0.66 -28 -1 C-23.70903831 -1.22509088 -19.41730127 -1.42723952 -15.125 -1.625 C-13.90167969 -1.68945312 -12.67835938 -1.75390625 -11.41796875 -1.8203125 C-10.25136719 -1.871875 -9.08476562 -1.9234375 -7.8828125 -1.9765625 C-6.80402832 -2.02893066 -5.72524414 -2.08129883 -4.61376953 -2.13525391 C-2 -2 -2 -2 0 0 Z " fill="#192E46" transform="translate(479,353)"/>
<path d="M0 0 C0.66 0.66 1.32 1.32 2 2 C5.58343976 2.16677282 5.58343976 2.16677282 9 2 C9.33 2.99 9.66 3.98 10 5 C8.35 4.67 6.7 4.34 5 4 C5 4.66 5 5.32 5 6 C4.34 6 3.68 6 3 6 C3 7.32 3 8.64 3 10 C1.35 10.33 -0.3 10.66 -2 11 C-1.67 9.68 -1.34 8.36 -1 7 C-0.34 7 0.32 7 1 7 C0.34 5.02 -0.32 3.04 -1 1 C-0.67 0.67 -0.34 0.34 0 0 Z " fill="#9DA7AF" transform="translate(542,474)"/>
<path d="M0 0 C0.33 0 0.66 0 1 0 C0.55104701 6.84653313 -0.37897458 14.03595813 -4 20 C-6.640625 20.8125 -6.640625 20.8125 -9 21 C-9.66 20.01 -10.32 19.02 -11 18 C-8.92446352 17.4465236 -7.15634036 17 -5 17 C-3.35 11.39 -1.7 5.78 0 0 Z " fill="#9BA5AC" transform="translate(590,454)"/>
<path d="M0 0 C10.56 0 21.12 0 32 0 C31.01 1.32 30.02 2.64 29 4 C28.34 4 27.68 4 27 4 C27 3.01 27 2.02 27 1 C18.09 1 9.18 1 0 1 C0 0.67 0 0.34 0 0 Z " fill="#8996A0" transform="translate(464,565)"/>
<path d="M0 0 C-0.33 0.99 -0.66 1.98 -1 3 C-1.8971875 2.6596875 -1.8971875 2.6596875 -2.8125 2.3125 C-5.01209262 1.75269413 -5.01209262 1.75269413 -6.625 3.0625 C-8.6541768 5.92179458 -8.29016846 8.23099522 -8.1875 11.6875 C-8.16042969 12.86699219 -8.13335937 14.04648437 -8.10546875 15.26171875 C-8.07066406 16.16535156 -8.03585937 17.06898438 -8 18 C-8.66 18.33 -9.32 18.66 -10 19 C-10.08071788 16.20775927 -10.14035408 13.41783434 -10.1875 10.625 C-10.21263672 9.8309375 -10.23777344 9.036875 -10.26367188 8.21875 C-10.29004405 6.14413852 -10.15486462 4.06899135 -10 2 C-6.3558226 -0.4294516 -4.28758728 -0.16179575 0 0 Z " fill="#CBCED2" transform="translate(429,411)"/>
<path d="M0 0 C3.3 0.33 6.6 0.66 10 1 C10.3403125 2.11375 10.3403125 2.11375 10.6875 3.25 C12.24407532 6.51139591 14.08518854 7.92894975 17 10 C16.67 10.66 16.34 11.32 16 12 C15.43152344 11.54109375 14.86304688 11.0821875 14.27734375 10.609375 C9.68430283 6.95947938 5.17996274 3.75529933 0 1 C0 0.67 0 0.34 0 0 Z " fill="#0B121E" transform="translate(532,383)"/>
<path d="M0 0 C0.66 0.33 1.32 0.66 2 1 C1.38511719 1.78503906 0.77023437 2.57007813 0.13671875 3.37890625 C-5.88374698 11.13569902 -5.88374698 11.13569902 -10 20 C-10.6640625 18.3046875 -10.6640625 18.3046875 -11 16 C-8.39063556 10.0553577 -4.30744699 4.81420546 0 0 Z " fill="#F0F2F3" transform="translate(466,320)"/>
<path d="M0 0 C0.33 0.99 0.66 1.98 1 3 C-0.1446875 3.6496875 -0.1446875 3.6496875 -1.3125 4.3125 C-3.96286253 5.83752358 -3.96286253 5.83752358 -5.6875 7.6875 C-6.3371875 8.3371875 -6.3371875 8.3371875 -7 9 C-7.66 9 -8.32 9 -9 9 C-9.33 10.65 -9.66 12.3 -10 14 C-10.33 13.34 -10.66 12.68 -11 12 C-11.66 12 -12.32 12 -13 12 C-11.69311714 8.07935143 -9.85695653 7.2196784 -6.5 4.875 C-3.10369507 2.61767474 -3.10369507 2.61767474 0 0 Z " fill="#9CA7AF" transform="translate(543,468)"/>
<path d="M0 0 C0.5534764 2.07553648 1 3.84365964 1 6 C0.34 6 -0.32 6 -1 6 C-1 6.66 -1 7.32 -1 8 C-0.34 8.33 0.32 8.66 1 9 C0.01 9.33 -0.98 9.66 -2 10 C-2.309375 10.66 -2.61875 11.32 -2.9375 12 C-4 14 -4 14 -6.125 14.75 C-7.053125 14.87375 -7.053125 14.87375 -8 15 C-6.38102741 11.69918209 -4.64075691 8.47442567 -2.875 5.25 C-2.33617187 4.26515625 -1.79734375 3.2803125 -1.2421875 2.265625 C-0.83226562 1.51796875 -0.42234375 0.7703125 0 0 Z " fill="#9DA7AE" transform="translate(552,453)"/>
<path d="M0 0 C1.31611677 0.95336021 2.62778961 1.91285774 3.9375 2.875 C4.66839844 3.40867187 5.39929688 3.94234375 6.15234375 4.4921875 C8 6 8 6 9 8 C9.25 11.4375 9.25 11.4375 9 15 C7.484375 16.72265625 7.484375 16.72265625 6 18 C6.06960938 17.34773437 6.13921875 16.69546875 6.2109375 16.0234375 C6.64868912 10.76673139 6.64868912 10.76673139 4.6640625 6.0703125 C3.16331156 4.65411091 1.58519633 3.32099694 0 2 C0 1.34 0 0.68 0 0 Z " fill="#E0E4E6" transform="translate(602,513)"/>
<path d="M0 0 C0.66 0 1.32 0 2 0 C2 0.66 2 1.32 2 2 C3.32 2.66 4.64 3.32 6 4 C-0.88002171 6.62096065 -7.72176039 6.18170362 -15 6 C-15 5.67 -15 5.34 -15 5 C-13.87851562 4.92652344 -13.87851562 4.92652344 -12.734375 4.8515625 C-11.74953125 4.77679688 -10.7646875 4.70203125 -9.75 4.625 C-8.77546875 4.55539062 -7.8009375 4.48578125 -6.796875 4.4140625 C-4.10366811 4.01534751 -2.33036721 3.36492937 0 2 C0 1.34 0 0.68 0 0 Z " fill="#96A1A9" transform="translate(520,488)"/>
<path d="M0 0 C4.33319809 0.50386024 7.63932733 1.11942343 11 4 C11.9375 7.5 11.9375 7.5 12 11 C11.01 12.485 11.01 12.485 10 14 C9.01 13.67 8.02 13.34 7 13 C7.66 13 8.32 13 9 13 C9.41725678 9.62599422 9.41725678 9.62599422 9 6 C6.78508316 4.13749195 6.78508316 4.13749195 4 3 C2.65368175 2.01755155 1.31558703 1.02323436 0 0 Z " fill="#060D1A" transform="translate(517,640)"/>
<path d="M0 0 C6.43806611 1.19276671 11.67381785 6.31330267 16 11 C15.67 11.66 15.34 12.32 15 13 C13.88625 11.7934375 13.88625 11.7934375 12.75 10.5625 C10.24695171 8.23011409 9.2819045 7.36465606 6 7 C6 6.34 6 5.68 6 5 C4.01924973 3.63823419 2.01920337 2.30406884 0 1 C0 0.67 0 0.34 0 0 Z " fill="#F0F1F3" transform="translate(533,311)"/>
<path d="M0 0 C0.99 0 1.98 0 3 0 C3.10054688 0.71800781 3.20109375 1.43601562 3.3046875 2.17578125 C4.31103341 6.2633548 6.54424839 9.29496239 8.8203125 12.79296875 C9.20960938 13.52128906 9.59890625 14.24960937 10 15 C9.67 15.66 9.34 16.32 9 17 C1.51708428 6.62642369 1.51708428 6.62642369 -1 1 C-0.67 0.67 -0.34 0.34 0 0 Z " fill="#090C12" transform="translate(357,640)"/>
<path d="M0 0 C1.32 0 2.64 0 4 0 C4.226875 0.804375 4.45375 1.60875 4.6875 2.4375 C5.120625 3.283125 5.55375 4.12875 6 5 C8.54775306 5.89386164 8.54775306 5.89386164 11 6 C11 6.33 11 6.66 11 7 C4.97463002 7.602537 4.97463002 7.602537 2.19921875 5.88671875 C0.74400545 4.65378147 -0.63479157 3.33191067 -2 2 C-1.34 1.34 -0.68 0.68 0 0 Z " fill="#85939C" transform="translate(593,527)"/>
<path d="M0 0 C2.52588702 2.36292656 3.88820837 3.66462511 5 7 C1.04 7 -2.92 7 -7 7 C-7 6.34 -7 5.68 -7 5 C-4.36 4.67 -1.72 4.34 1 4 C0.67 2.68 0.34 1.36 0 0 Z " fill="#32557E" transform="translate(681,657)"/>
<path d="M0 0 C0.66 0.66 1.32 1.32 2 2 C1.57847656 2.62648438 1.15695312 3.25296875 0.72265625 3.8984375 C0.17480469 4.71570313 -0.37304688 5.53296875 -0.9375 6.375 C-1.48277344 7.18710937 -2.02804687 7.99921875 -2.58984375 8.8359375 C-4.01093879 10.92719184 -4.01093879 10.92719184 -5 13 C-5.66 12.67 -6.32 12.34 -7 12 C-6.4739075 8.21213403 -5.61896089 5.82847776 -3 3 C-2.34 3 -1.68 3 -1 3 C-0.67 2.01 -0.34 1.02 0 0 Z " fill="#C4C9CE" transform="translate(460,384)"/>
<path d="M0 0 C1.35432675 1.31200404 2.68733482 2.64631404 4 4 C4 4.33 4 4.66 4 5 C0.04 5 -3.92 5 -8 5 C-8.33 4.01 -8.66 3.02 -9 2 C-6.03 2 -3.06 2 0 2 C0 1.34 0 0.68 0 0 Z " fill="#F7F8F9" transform="translate(366,659)"/>
<path d="M0 0 C2.97 0.495 2.97 0.495 6 1 C5.67 2.32 5.34 3.64 5 5 C1.37 5 -2.26 5 -6 5 C-6 4.67 -6 4.34 -6 4 C-4.02 4 -2.04 4 0 4 C0 2.68 0 1.36 0 0 Z " fill="#919EA7" transform="translate(486,571)"/>
<path d="M0 0 C3.3 0 6.6 0 10 0 C9.01 1.98 8.02 3.96 7 6 C6.34 5.67 5.68 5.34 5 5 C5.33 4.34 5.66 3.68 6 3 C3.69 2.67 1.38 2.34 -1 2 C-0.67 1.34 -0.34 0.68 0 0 Z " fill="#FAFAFB" transform="translate(312,610)"/>
<path d="M0 0 C4.62 0 9.24 0 14 0 C13.67 0.99 13.34 1.98 13 3 C8.07872966 3.16682272 4.49656104 3.24828052 0 1 C0 0.67 0 0.34 0 0 Z " fill="#C7CDD1" transform="translate(480,525)"/>
<path d="M0 0 C0.66 0.33 1.32 0.66 2 1 C-1.66666667 4.66666667 -5.33333333 8.33333333 -9 12 C-9 11.34 -9 10.68 -9 10 C-9.66 9.67 -10.32 9.34 -11 9 C-10.29875 8.62875 -9.5975 8.2575 -8.875 7.875 C-5.38973488 5.60200101 -2.87223102 3.00582316 0 0 Z " fill="#BEC3C8" transform="translate(474,394)"/>
<path d="M0 0 C5.27112904 2.79692561 9.59398317 5.98235547 14 10 C13.34 10.66 12.68 11.32 12 12 C11.55269531 11.52949219 11.10539063 11.05898438 10.64453125 10.57421875 C7.27953143 7.10877117 4.20894024 4.42332923 0 2 C0 1.34 0 0.68 0 0 Z " fill="#E0E3E5" transform="translate(539,388)"/>
<path d="M0 0 C0.66 0.66 1.32 1.32 2 2 C0.21475351 3.19713017 -1.5784028 4.38247279 -3.375 5.5625 C-4.87160156 6.55443359 -4.87160156 6.55443359 -6.3984375 7.56640625 C-7.25695312 8.03949219 -8.11546875 8.51257813 -9 9 C-9.66 8.67 -10.32 8.34 -11 8 C-7.84442256 3.32974539 -5.1358421 1.87655769 0 0 Z " fill="#E0E3E6" transform="translate(479,372)"/>
<path d="M0 0 C0.66 1.32 1.32 2.64 2 4 C-1.63 4 -5.26 4 -9 4 C-8.67 3.01 -8.34 2.02 -8 1 C-5.36 1.33 -2.72 1.66 0 2 C0 1.34 0 0.68 0 0 Z " fill="#385B85" transform="translate(635,660)"/>
<path d="M0 0 C0.33 0 0.66 0 1 0 C1.66 2.97 2.32 5.94 3 9 C2.01 9.33 1.02 9.66 0 10 C0 9.01 0 8.02 0 7 C-0.66 7 -1.32 7 -2 7 C-1.125 1.125 -1.125 1.125 0 0 Z " fill="#BDC3C7" transform="translate(432,453)"/>
<path d="M0 0 C2.97 0.99 5.94 1.98 9 3 C8.34 3.66 7.68 4.32 7 5 C3.55834679 4.64700993 1.93127462 3.95418308 -1 2 C-0.67 1.34 -0.34 0.68 0 0 Z " fill="#161F2F" transform="translate(522,396)"/>
<path d="M0 0 C0.91058531 3.07322544 1.08886184 5.80097361 1 9 C0.01 9.495 0.01 9.495 -1 10 C-2.13350534 12.01669827 -2.13350534 12.01669827 -3 14 C-2.58846263 9.02906176 -2.20399168 4.55491614 0 0 Z " fill="#15253B" transform="translate(452,337)"/>
<path d="M0 0 C6.625 -0.125 6.625 -0.125 10 1 C10 1.66 10 2.32 10 3 C3.47692308 3.36923077 3.47692308 3.36923077 1.0625 1.5 C0.5365625 0.7575 0.5365625 0.7575 0 0 Z " fill="#09121F" transform="translate(494,477)"/>
<path d="M0 0 C2.33061852 3.49592778 2.70295038 5.84130536 3 10 C2.01 11.485 2.01 11.485 1 13 C0.63447197 11.58622218 0.28304505 10.16879424 -0.0625 8.75 C-0.25972656 7.96109375 -0.45695312 7.1721875 -0.66015625 6.359375 C-1.01497267 3.89605178 -0.76877544 2.34395868 0 0 Z " fill="#C0C6CA" transform="translate(422,456)"/>
<path d="M0 0 C-6.625 4 -6.625 4 -10 4 C-9 1 -9 1 -6.6875 -0.25 C-3.90126985 -1.0275526 -2.66561622 -0.98726527 0 0 Z " fill="#EBEDEE" transform="translate(489,309)"/>
<path d="M0 0 C0.66 0.33 1.32 0.66 2 1 C-0.1875 3.0625 -0.1875 3.0625 -3 5 C-5.8125 4.75 -5.8125 4.75 -8 4 C-5.31143836 2.20762558 -3.0466145 1.01553817 0 0 Z " fill="#9DA8AF" transform="translate(527,479)"/>
<path d="M0 0 C7.75 0.875 7.75 0.875 10 2 C10 2.66 10 3.32 10 4 C8.02 4 6.04 4 4 4 C3.67 3.01 3.34 2.02 3 1 C2.01 0.67 1.02 0.34 0 0 Z " fill="#EAEBED" transform="translate(522,307)"/>
<path d="M0 0 C3.37462715 0.54723683 5.08235 1.0549 8 3 C8 3.66 8 4.32 8 5 C4.33776842 4.50510384 2.33006074 3.94323463 0 1 C0 0.67 0 0.34 0 0 Z " fill="#E6E8E9" transform="translate(431,611)"/>
<path d="M0 0 C0.598125 0.20625 1.19625 0.4125 1.8125 0.625 C-0.69562014 3.13312014 -2.81684407 4.50144802 -6.1875 5.625 C-5.875 3.75 -5.875 3.75 -5.1875 1.625 C-2.1875 -0.375 -2.1875 -0.375 0 0 Z " fill="#EBEBED" transform="translate(456.1875,611.375)"/>
<path d="M0 0 C0.99 0.33 1.98 0.66 3 1 C2.67 2.65 2.34 4.3 2 6 C-1.3 6 -4.6 6 -8 6 C-8 5.67 -8 5.34 -8 5 C-5.03 5 -2.06 5 1 5 C0.67 3.35 0.34 1.7 0 0 Z " fill="#0F233C" transform="translate(475,353)"/>
<path d="M0 0 C2.64 0 5.28 0 8 0 C8 0.66 8 1.32 8 2 C6.02 2 4.04 2 2 2 C1.67 2.66 1.34 3.32 1 4 C0.67 2.68 0.34 1.36 0 0 Z " fill="#2B2F36" transform="translate(338,643)"/>
<path d="M0 0 C3.36720387 1.39332574 4.9859524 2.9789286 7 6 C4 6 4 6 1.8125 4.125 C0 2 0 2 0 0 Z " fill="#191F2C" transform="translate(583,524)"/>
<path d="M0 0 C0.66 0.33 1.32 0.66 2 1 C-1.32307692 4.93846154 -1.32307692 4.93846154 -4.75 5.25 C-5.4925 5.1675 -6.235 5.085 -7 5 C-4.88437775 2.67281553 -2.94982021 1.14186589 0 0 Z " fill="#8C98A1" transform="translate(545,504)"/>
<path d="M0 0 C1.80411967 2.75924185 2.0127245 3.88972103 1.625 7.25 C1.41875 8.1575 1.2125 9.065 1 10 C-1 8 -1 8 -1.1875 5 C-1 2 -1 2 0 0 Z " fill="#151F2F" transform="translate(419,460)"/>
</svg>
